<svg width="562" height="164" viewBox="0 0 562 164" fill="none" xmlns="http://www.w3.org/2000/svg">
<path d="M560.5 74.5C560.5 94.2225 544.963 112.455 518.99 125.846C493.093 139.198 457.214 147.5 417.5 147.5C377.786 147.5 341.907 139.198 316.01 125.846C290.037 112.455 274.5 94.2225 274.5 74.5C274.5 54.7775 290.037 36.5449 316.01 23.1538C341.907 9.80244 377.786 1.5 417.5 1.5C457.214 1.5 493.093 9.80244 518.99 23.1538C544.963 36.5449 560.5 54.7775 560.5 74.5Z" fill="#CCE6F4" stroke="#175676" stroke-width="3"/>
<path d="M125 104L236 104" stroke="#4BA3C3" stroke-width="4" stroke-linecap="round"/>
<path d="M213 53L258 53" stroke="#4BA3C3" stroke-width="4" stroke-linecap="round"/>
<path d="M96 53L188 53" stroke="#4BA3C3" stroke-width="4" stroke-linecap="round"/>
<path d="M2 75L227 76" stroke="#4BA3C3" stroke-width="4" stroke-linecap="round"/>
<path d="M78 104L101 104" stroke="#4BA3C3" stroke-width="4" stroke-linecap="round"/>
<path d="M332.446 79V45.4H346.462C348.606 45.4 350.414 45.72 351.886 46.36C353.358 47 354.462 47.96 355.198 49.24C355.966 50.488 356.35 52.024 356.35 53.848C356.35 55.672 355.838 57.224 354.814 58.504C353.822 59.784 352.43 60.664 350.638 61.144V60.184C352.142 60.504 353.454 61.08 354.574 61.912C355.694 62.712 356.558 63.72 357.166 64.936C357.806 66.152 358.126 67.544 358.126 69.112C358.126 70.712 357.87 72.136 357.358 73.384C356.878 74.6 356.142 75.624 355.15 76.456C354.19 77.288 353.022 77.928 351.646 78.376C350.27 78.792 348.702 79 346.942 79H332.446ZM337.63 74.008H346.654C347.966 74.008 349.07 73.816 349.966 73.432C350.894 73.048 351.598 72.488 352.078 71.752C352.59 70.984 352.846 70.072 352.846 69.016C352.846 68.024 352.574 67.176 352.03 66.472C351.518 65.768 350.782 65.24 349.822 64.888C348.862 64.504 347.726 64.312 346.414 64.312H337.63V74.008ZM337.63 59.32H346.174C347.134 59.32 347.982 59.128 348.718 58.744C349.486 58.36 350.078 57.832 350.494 57.16C350.942 56.488 351.166 55.72 351.166 54.856C351.166 53.416 350.686 52.312 349.726 51.544C348.766 50.776 347.39 50.392 345.598 50.392H337.63V59.32ZM364.686 79V53.8H369.63V79H364.686ZM367.086 48.232C366.03 48.232 365.214 47.96 364.638 47.416C364.062 46.872 363.774 46.104 363.774 45.112C363.774 44.184 364.062 43.432 364.638 42.856C365.246 42.28 366.062 41.992 367.086 41.992C368.142 41.992 368.958 42.264 369.534 42.808C370.11 43.352 370.398 44.12 370.398 45.112C370.398 46.04 370.094 46.792 369.486 47.368C368.91 47.944 368.11 48.232 367.086 48.232ZM380.349 79V47.368H385.293V79H380.349ZM375.117 58.6V53.8H391.149V58.6H375.117ZM407.177 79.48C404.585 79.48 402.281 78.936 400.265 77.848C398.281 76.728 396.713 75.208 395.561 73.288C394.441 71.368 393.881 69.16 393.881 66.664C393.881 64.68 394.201 62.872 394.841 61.24C395.481 59.608 396.361 58.2 397.481 57.016C398.633 55.8 399.993 54.872 401.561 54.232C403.161 53.56 404.889 53.224 406.745 53.224C408.377 53.224 409.897 53.544 411.305 54.184C412.713 54.792 413.929 55.64 414.953 56.728C416.009 57.816 416.809 59.112 417.353 60.616C417.929 62.088 418.201 63.704 418.169 65.464L418.121 67.576H397.529L396.425 63.64H413.849L413.129 64.456V63.304C413.033 62.248 412.681 61.304 412.073 60.472C411.465 59.64 410.697 58.984 409.769 58.504C408.841 58.024 407.833 57.784 406.745 57.784C405.017 57.784 403.561 58.12 402.377 58.792C401.193 59.432 400.297 60.392 399.689 61.672C399.081 62.92 398.777 64.472 398.777 66.328C398.777 68.088 399.145 69.624 399.881 70.936C400.617 72.216 401.657 73.208 403.001 73.912C404.345 74.616 405.897 74.968 407.657 74.968C408.905 74.968 410.057 74.76 411.113 74.344C412.201 73.928 413.369 73.176 414.617 72.088L417.113 75.592C416.345 76.36 415.401 77.032 414.281 77.608C413.193 78.184 412.025 78.648 410.777 79C409.561 79.32 408.361 79.48 407.177 79.48ZM424.79 79V45.4H438.806C440.95 45.4 442.758 45.72 444.23 46.36C445.702 47 446.806 47.96 447.542 49.24C448.31 50.488 448.694 52.024 448.694 53.848C448.694 55.672 448.182 57.224 447.158 58.504C446.166 59.784 444.774 60.664 442.982 61.144V60.184C444.486 60.504 445.798 61.08 446.918 61.912C448.038 62.712 448.902 63.72 449.51 64.936C450.15 66.152 450.47 67.544 450.47 69.112C450.47 70.712 450.214 72.136 449.702 73.384C449.222 74.6 448.486 75.624 447.494 76.456C446.534 77.288 445.366 77.928 443.99 78.376C442.614 78.792 441.046 79 439.286 79H424.79ZM429.974 74.008H438.998C440.31 74.008 441.414 73.816 442.31 73.432C443.238 73.048 443.942 72.488 444.422 71.752C444.934 70.984 445.19 70.072 445.19 69.016C445.19 68.024 444.918 67.176 444.374 66.472C443.862 65.768 443.126 65.24 442.166 64.888C441.206 64.504 440.07 64.312 438.758 64.312H429.974V74.008ZM429.974 59.32H438.518C439.478 59.32 440.326 59.128 441.062 58.744C441.83 58.36 442.422 57.832 442.838 57.16C443.286 56.488 443.51 55.72 443.51 54.856C443.51 53.416 443.03 52.312 442.07 51.544C441.11 50.776 439.734 50.392 437.942 50.392H429.974V59.32ZM467.495 79.48C465.031 79.48 462.823 78.92 460.871 77.8C458.951 76.648 457.431 75.096 456.311 73.144C455.191 71.16 454.631 68.904 454.631 66.376C454.631 63.848 455.191 61.608 456.311 59.656C457.431 57.672 458.951 56.12 460.871 55C462.823 53.848 465.031 53.272 467.495 53.272C469.927 53.272 472.103 53.848 474.023 55C475.975 56.12 477.511 57.672 478.631 59.656C479.751 61.608 480.311 63.848 480.311 66.376C480.311 68.904 479.751 71.16 478.631 73.144C477.511 75.096 475.975 76.648 474.023 77.8C472.103 78.92 469.927 79.48 467.495 79.48ZM467.495 74.968C468.999 74.968 470.343 74.6 471.527 73.864C472.711 73.096 473.639 72.072 474.311 70.792C474.983 69.48 475.303 68.008 475.271 66.376C475.303 64.712 474.983 63.24 474.311 61.96C473.639 60.648 472.711 59.624 471.527 58.888C470.343 58.152 468.999 57.784 467.495 57.784C465.991 57.784 464.631 58.168 463.415 58.936C462.231 59.672 461.303 60.696 460.631 62.008C459.959 63.288 459.639 64.744 459.671 66.376C459.639 68.008 459.959 69.48 460.631 70.792C461.303 72.072 462.231 73.096 463.415 73.864C464.631 74.6 465.991 74.968 467.495 74.968ZM501.513 79L493.353 68.392L492.633 67.48L482.025 53.8H488.265L496.281 64.264L497.097 65.32L507.561 79H501.513ZM482.073 79L492.009 66.04L494.937 69.544L487.929 79H482.073ZM497.385 66.808L494.649 63.352L500.841 53.8H506.697L497.385 66.808Z" fill="#BA324F"/>
<circle cx="514" cy="134" r="29" fill="#BA324F" stroke="#9E0324" stroke-width="2"/>
<circle cx="335" cy="134" r="29" fill="#BA324F" stroke="#9E0324" stroke-width="2"/>
</svg>
