<svg width="100" height="100" viewBox="0 0 100 100" fill="none" xmlns="http://www.w3.org/2000/svg">
<circle cx="50" cy="50" r="50" fill="#CCE6F4"/>
<path d="M44.6757 44.8369C44.6757 50.6114 40.5019 52.9891 36.7703 52.9891C33.0386 52.9891 29 50.8831 29 44.8369" stroke="black" stroke-width="2"/>
<path d="M32.9189 28.5326C32.9189 26.5898 32.8918 25 30.9594 25C29.027 25 29 26.148 29 28.5326" stroke="black" stroke-width="2"/>
<path d="M40.7568 28.6684C40.7568 26.7255 40.7297 25.1357 38.7973 25.1357C36.8649 25.1357 36.8379 26.2838 36.8379 28.6683" stroke="black" stroke-width="2"/>
<path d="M44.6758 28.5326C44.6758 26.5898 44.6486 25 42.7162 25C40.7838 25 40.7568 26.148 40.7568 28.5326" stroke="black" stroke-width="2"/>
<path d="M36.8379 28.5326C36.8379 26.5898 36.8108 25 34.8783 25C32.9459 25 32.9189 26.148 32.9189 28.5326" stroke="black" stroke-width="2"/>
<path d="M36.8379 53.125C36.8307 54.2944 36.71 73.8281 36.7028 75" stroke="black" stroke-width="2" stroke-linecap="round"/>
<path d="M40.7568 27.8533C40.7568 28.7612 40.7568 43.9271 40.7568 44.837" stroke="black" stroke-width="2" stroke-linecap="round"/>
<path d="M29 27.8533C29 28.7612 29 43.9271 29 44.837" stroke="black" stroke-width="2" stroke-linecap="round"/>
<path d="M32.9189 27.8533C32.9189 28.7612 32.9189 43.9271 32.9189 44.837" stroke="black" stroke-width="2" stroke-linecap="round"/>
<path d="M36.8379 27.8533C36.8379 28.7612 36.8379 43.9271 36.8379 44.837" stroke="black" stroke-width="2" stroke-linecap="round"/>
<path d="M44.6758 27.8533C44.6758 28.7612 44.6758 43.9271 44.6758 44.837" stroke="black" stroke-width="2" stroke-linecap="round"/>
<path d="M62.6507 29.1892C62.5831 25.9459 60.5976 25 58.7318 25C56.866 25 55.0156 25.9459 55.0156 29.1892" stroke="black" stroke-width="2"/>
<path d="M62.6509 29.3245C62.6509 31.7661 62.6509 72.5529 62.6509 74.9999" stroke="black" stroke-width="2" stroke-linecap="round"/>
<path d="M55.0156 29.1892C55.0156 30.0922 55.0156 45.1761 55.0156 46.081" stroke="black" stroke-width="2" stroke-linecap="round"/>
<path d="M55.0155 44.7295C55.0155 45.0673 54.3398 53.1078 61.9074 53.1078" stroke="black" stroke-width="2" stroke-linecap="round"/>
</svg>
