<svg width="36" height="52" viewBox="0 0 36 52" fill="none" xmlns="http://www.w3.org/2000/svg">
<path d="M16.6757 20.8369C16.6757 26.6114 12.5019 28.9891 8.77027 28.9891C5.03862 28.9891 1 26.8831 1 20.8369" stroke="black" stroke-width="2"/>
<path d="M4.91892 4.53261C4.91892 2.58976 4.89181 1 2.9594 1C1.027 1 1 2.14805 1 4.53256" stroke="black" stroke-width="2"/>
<path d="M12.7568 4.66835C12.7568 2.7255 12.7297 1.13574 10.7973 1.13574C8.86489 1.13574 8.83789 2.28379 8.83789 4.66831" stroke="black" stroke-width="2"/>
<path d="M16.6758 4.53261C16.6758 2.58976 16.6486 1 14.7162 1C12.7838 1 12.7568 2.14805 12.7568 4.53256" stroke="black" stroke-width="2"/>
<path d="M8.83786 4.53261C8.83786 2.58976 8.81076 1 6.87835 1C4.94594 1 4.91895 2.14805 4.91895 4.53256" stroke="black" stroke-width="2"/>
<path d="M8.83789 29.125C8.83067 30.2944 8.71 49.8281 8.70276 51" stroke="black" stroke-width="2" stroke-linecap="round"/>
<path d="M12.7568 3.85352C12.7568 4.76142 12.7568 19.9273 12.7568 20.8372" stroke="black" stroke-width="2" stroke-linecap="round"/>
<path d="M1 3.85352C1 4.76142 1 19.9273 1 20.8372" stroke="black" stroke-width="2" stroke-linecap="round"/>
<path d="M4.91895 3.85352C4.91895 4.76142 4.91895 19.9273 4.91895 20.8372" stroke="black" stroke-width="2" stroke-linecap="round"/>
<path d="M8.83789 3.85352C8.83789 4.76142 8.83789 19.9273 8.83789 20.8372" stroke="black" stroke-width="2" stroke-linecap="round"/>
<path d="M16.6758 3.85352C16.6758 4.76142 16.6758 19.9273 16.6758 20.8372" stroke="black" stroke-width="2" stroke-linecap="round"/>
<path d="M34.6507 5.18916C34.5831 1.94594 32.5976 1 30.7318 1C28.866 1 27.0156 1.94594 27.0156 5.18916" stroke="black" stroke-width="2"/>
<path d="M34.6509 5.32471C34.6509 7.76639 34.6509 48.5532 34.6509 51.0001" stroke="black" stroke-width="2" stroke-linecap="round"/>
<path d="M27.0156 5.18896C27.0156 6.09195 27.0156 21.1758 27.0156 22.0808" stroke="black" stroke-width="2" stroke-linecap="round"/>
<path d="M27.0155 20.7295C27.0155 21.0673 26.3398 29.1078 33.9074 29.1078" stroke="black" stroke-width="2" stroke-linecap="round"/>
</svg>
