<svg width="812" height="531" viewBox="0 0 812 531" fill="none" xmlns="http://www.w3.org/2000/svg">
<rect x="50.8748" y="8.00061" width="710.999" height="514.999" fill="#FF5257" stroke="#C5283D" stroke-width="10"/>
<rect x="428" y="162" width="137" height="186" fill="#FF5257" stroke="#C5283D" stroke-width="10"/>
<rect x="425.5" y="159.5" width="142" height="114" rx="2.5" fill="#CCE6F4" stroke="#C5283D" stroke-width="5"/>
<rect x="425.5" y="278.5" width="142" height="71.9999" fill="#C5283D" stroke="#C5283D" stroke-width="5"/>
<path d="M766.874 3.00061V87.8755" stroke="black" stroke-width="5" stroke-linecap="round"/>
<path d="M766.874 3.00061L202.5 3.00061" stroke="black" stroke-width="5" stroke-linecap="round"/>
<path d="M45.8748 3.00061L173.625 3.00061" stroke="black" stroke-width="5" stroke-linecap="round"/>
<path d="M225.687 293.501L225.687 3.0001" stroke="black" stroke-width="5" stroke-linecap="round"/>
<path d="M406.375 524.5L406.375 230.5" stroke="black" stroke-width="5" stroke-linecap="round"/>
<path d="M586.187 348.636V3.00005" stroke="black" stroke-width="5" stroke-linecap="round"/>
<path d="M406.375 187.625L406.375 2.99998" stroke="black" stroke-width="5" stroke-linecap="round"/>
<path d="M226.125 524.5L226.125 313.625" stroke="black" stroke-width="5" stroke-linecap="round"/>
<path d="M586.625 524.5V370.5" stroke="black" stroke-width="5" stroke-linecap="round"/>
<path d="M45.8748 3.00061L45.8748 524.5" stroke="black" stroke-width="5" stroke-linecap="round"/>
<path d="M766.874 118.5V524.5" stroke="black" stroke-width="5" stroke-linecap="round"/>
<path d="M3 528L808.874 528" stroke="black" stroke-width="5" stroke-linecap="round"/>
<path d="M603.25 59.0005H750.25" stroke="black" stroke-width="5" stroke-linecap="round"/>
<path d="M603.25 108H750.25" stroke="black" stroke-width="5" stroke-linecap="round"/>
<path d="M603.25 353H750.25" stroke="black" stroke-width="5" stroke-linecap="round"/>
<path d="M603.25 402H750.25" stroke="black" stroke-width="5" stroke-linecap="round"/>
<path d="M603.25 255H750.25" stroke="black" stroke-width="5" stroke-linecap="round"/>
<path d="M603.25 304H750.25" stroke="black" stroke-width="5" stroke-linecap="round"/>
<path d="M603.25 157H750.25" stroke="black" stroke-width="5" stroke-linecap="round"/>
<path d="M603.249 206H712.624" stroke="black" stroke-width="5" stroke-linecap="round"/>
<path d="M724.874 206H750.249" stroke="black" stroke-width="5" stroke-linecap="round"/>
<path d="M423 59.0005H506.999" stroke="black" stroke-width="5" stroke-linecap="round"/>
<path d="M524.499 59.0005L569.999 59.0005" stroke="black" stroke-width="5" stroke-linecap="round"/>
<path d="M423.001 108H570.001" stroke="black" stroke-width="5" stroke-linecap="round"/>
<path d="M460.625 353H569.999" stroke="black" stroke-width="5" stroke-linecap="round"/>
<path d="M423 353H448.374" stroke="black" stroke-width="5" stroke-linecap="round"/>
<path d="M569.999 206L570.001 353" stroke="black" stroke-width="5" stroke-linecap="round"/>
<path d="M569.999 157V195.5" stroke="black" stroke-width="5" stroke-linecap="round"/>
<path d="M423.001 402H570.001" stroke="black" stroke-width="5" stroke-linecap="round"/>
<path d="M423.001 157H570.001" stroke="black" stroke-width="5" stroke-linecap="round"/>
<path d="M423.001 157L422.999 353" stroke="black" stroke-width="5" stroke-linecap="round"/>
<path d="M242.751 59.0005H389.751" stroke="black" stroke-width="5" stroke-linecap="round"/>
<path d="M242.751 108H389.751" stroke="black" stroke-width="5" stroke-linecap="round"/>
<path d="M242.751 353H389.751" stroke="black" stroke-width="5" stroke-linecap="round"/>
<path d="M282.125 402H389.749" stroke="black" stroke-width="5" stroke-linecap="round"/>
<path d="M242.75 402H268.999" stroke="black" stroke-width="5" stroke-linecap="round"/>
<path d="M242.751 255L298.75 255" stroke="black" stroke-width="5" stroke-linecap="round"/>
<path d="M316.25 255L388.874 255" stroke="black" stroke-width="5" stroke-linecap="round"/>
<path d="M242.751 304H389.751" stroke="black" stroke-width="5" stroke-linecap="round"/>
<path d="M242.751 157H389.751" stroke="black" stroke-width="5" stroke-linecap="round"/>
<path d="M242.75 206.438H389.752" stroke="black" stroke-width="5" stroke-linecap="round"/>
<path d="M62.5012 59.0005H209.501" stroke="black" stroke-width="5" stroke-linecap="round"/>
<path d="M62.5012 108H209.501" stroke="black" stroke-width="5" stroke-linecap="round"/>
<path d="M62.5012 353H209.501" stroke="black" stroke-width="5" stroke-linecap="round"/>
<path d="M62.5012 402H209.501" stroke="black" stroke-width="5" stroke-linecap="round"/>
<path d="M62.5012 255H209.501" stroke="black" stroke-width="5" stroke-linecap="round"/>
<path d="M62.5 304H121.125" stroke="black" stroke-width="5" stroke-linecap="round"/>
<path d="M136 304H209.5" stroke="black" stroke-width="5" stroke-linecap="round"/>
<path d="M96.625 157L209.5 157" stroke="black" stroke-width="5" stroke-linecap="round"/>
<path d="M62.5 157H83.5" stroke="black" stroke-width="5" stroke-linecap="round"/>
<path d="M62.5 206.438H209.502" stroke="black" stroke-width="5" stroke-linecap="round"/>
<path d="M451.503 189.5V172H458.803C459.919 172 460.861 172.167 461.628 172.5C462.394 172.834 462.969 173.334 463.353 174C463.753 174.65 463.953 175.45 463.953 176.4C463.953 177.35 463.686 178.159 463.153 178.825C462.636 179.492 461.911 179.95 460.978 180.2V179.7C461.761 179.867 462.444 180.167 463.028 180.6C463.611 181.017 464.061 181.542 464.378 182.175C464.711 182.809 464.878 183.534 464.878 184.35C464.878 185.184 464.744 185.925 464.478 186.575C464.228 187.209 463.844 187.742 463.328 188.175C462.828 188.609 462.219 188.942 461.503 189.175C460.786 189.392 459.969 189.5 459.053 189.5H451.503ZM454.203 186.9H458.903C459.586 186.9 460.161 186.8 460.628 186.6C461.111 186.4 461.478 186.109 461.728 185.725C461.994 185.325 462.128 184.85 462.128 184.3C462.128 183.784 461.986 183.342 461.703 182.975C461.436 182.609 461.053 182.334 460.553 182.15C460.053 181.95 459.461 181.85 458.778 181.85H454.203V186.9ZM454.203 179.25H458.653C459.153 179.25 459.594 179.15 459.978 178.95C460.378 178.75 460.686 178.475 460.903 178.125C461.136 177.775 461.253 177.375 461.253 176.925C461.253 176.175 461.003 175.6 460.503 175.2C460.003 174.8 459.286 174.6 458.353 174.6H454.203V179.25ZM468.294 189.5V176.375H470.869V189.5H468.294ZM469.544 173.475C468.994 173.475 468.569 173.334 468.269 173.05C467.969 172.767 467.819 172.367 467.819 171.85C467.819 171.367 467.969 170.975 468.269 170.675C468.586 170.375 469.011 170.225 469.544 170.225C470.094 170.225 470.519 170.367 470.819 170.65C471.119 170.934 471.269 171.334 471.269 171.85C471.269 172.334 471.111 172.725 470.794 173.025C470.494 173.325 470.078 173.475 469.544 173.475ZM476.452 189.5V173.025H479.027V189.5H476.452ZM473.727 178.875V176.375H482.077V178.875H473.727ZM490.425 189.75C489.075 189.75 487.875 189.467 486.825 188.9C485.792 188.317 484.975 187.525 484.375 186.525C483.792 185.525 483.5 184.375 483.5 183.075C483.5 182.042 483.667 181.1 484 180.25C484.333 179.4 484.792 178.667 485.375 178.05C485.975 177.417 486.683 176.934 487.5 176.6C488.333 176.25 489.233 176.075 490.2 176.075C491.05 176.075 491.842 176.242 492.575 176.575C493.308 176.892 493.942 177.334 494.475 177.9C495.025 178.467 495.442 179.142 495.725 179.925C496.025 180.692 496.167 181.534 496.15 182.45L496.125 183.55H485.4L484.825 181.5H493.9L493.525 181.925V181.325C493.475 180.775 493.292 180.284 492.975 179.85C492.658 179.417 492.258 179.075 491.775 178.825C491.292 178.575 490.767 178.45 490.2 178.45C489.3 178.45 488.542 178.625 487.925 178.975C487.308 179.309 486.842 179.809 486.525 180.475C486.208 181.125 486.05 181.934 486.05 182.9C486.05 183.817 486.242 184.617 486.625 185.3C487.008 185.967 487.55 186.484 488.25 186.85C488.95 187.217 489.758 187.4 490.675 187.4C491.325 187.4 491.925 187.292 492.475 187.075C493.042 186.859 493.65 186.467 494.3 185.9L495.6 187.725C495.2 188.125 494.708 188.475 494.125 188.775C493.558 189.075 492.95 189.317 492.3 189.5C491.667 189.667 491.042 189.75 490.425 189.75ZM499.598 189.5V172H506.898C508.015 172 508.957 172.167 509.723 172.5C510.49 172.834 511.065 173.334 511.448 174C511.848 174.65 512.048 175.45 512.048 176.4C512.048 177.35 511.782 178.159 511.248 178.825C510.732 179.492 510.007 179.95 509.073 180.2V179.7C509.857 179.867 510.54 180.167 511.123 180.6C511.707 181.017 512.157 181.542 512.473 182.175C512.807 182.809 512.973 183.534 512.973 184.35C512.973 185.184 512.84 185.925 512.573 186.575C512.323 187.209 511.94 187.742 511.423 188.175C510.923 188.609 510.315 188.942 509.598 189.175C508.882 189.392 508.065 189.5 507.148 189.5H499.598ZM502.298 186.9H506.998C507.682 186.9 508.257 186.8 508.723 186.6C509.207 186.4 509.573 186.109 509.823 185.725C510.09 185.325 510.223 184.85 510.223 184.3C510.223 183.784 510.082 183.342 509.798 182.975C509.532 182.609 509.148 182.334 508.648 182.15C508.148 181.95 507.557 181.85 506.873 181.85H502.298V186.9ZM502.298 179.25H506.748C507.248 179.25 507.69 179.15 508.073 178.95C508.473 178.75 508.782 178.475 508.998 178.125C509.232 177.775 509.348 177.375 509.348 176.925C509.348 176.175 509.098 175.6 508.598 175.2C508.098 174.8 507.382 174.6 506.448 174.6H502.298V179.25ZM521.841 189.75C520.557 189.75 519.407 189.459 518.391 188.875C517.391 188.275 516.599 187.467 516.016 186.45C515.432 185.417 515.141 184.242 515.141 182.925C515.141 181.609 515.432 180.442 516.016 179.425C516.599 178.392 517.391 177.584 518.391 177C519.407 176.4 520.557 176.1 521.841 176.1C523.107 176.1 524.241 176.4 525.241 177C526.257 177.584 527.057 178.392 527.641 179.425C528.224 180.442 528.516 181.609 528.516 182.925C528.516 184.242 528.224 185.417 527.641 186.45C527.057 187.467 526.257 188.275 525.241 188.875C524.241 189.459 523.107 189.75 521.841 189.75ZM521.841 187.4C522.624 187.4 523.324 187.209 523.941 186.825C524.557 186.425 525.041 185.892 525.391 185.225C525.741 184.542 525.907 183.775 525.891 182.925C525.907 182.059 525.741 181.292 525.391 180.625C525.041 179.942 524.557 179.409 523.941 179.025C523.324 178.642 522.624 178.45 521.841 178.45C521.057 178.45 520.349 178.65 519.716 179.05C519.099 179.434 518.616 179.967 518.266 180.65C517.916 181.317 517.749 182.075 517.766 182.925C517.749 183.775 517.916 184.542 518.266 185.225C518.616 185.892 519.099 186.425 519.716 186.825C520.349 187.209 521.057 187.4 521.841 187.4ZM539.558 189.5L535.308 183.975L534.933 183.5L529.408 176.375H532.658L536.833 181.825L537.258 182.375L542.708 189.5H539.558ZM529.433 189.5L534.608 182.75L536.133 184.575L532.483 189.5H529.433ZM537.408 183.15L535.983 181.35L539.208 176.375H542.258L537.408 183.15Z" fill="#BA324F"/>
<rect x="437.875" y="279.5" width="10.5" height="10.5" rx="2" fill="#D9D9D9"/>
<rect x="451" y="279.5" width="10.5" height="10.5" rx="2" fill="#D9D9D9"/>
<rect x="451" y="292.625" width="10.5" height="10.5" rx="2" fill="#D9D9D9"/>
<rect x="451" y="305.75" width="10.5" height="10.5" rx="2" fill="#D9D9D9"/>
<rect x="464.125" y="279.5" width="10.5" height="10.5" rx="2" fill="#D9D9D9"/>
<rect x="464.125" y="292.625" width="10.5" height="10.5" rx="2" fill="#D9D9D9"/>
<rect x="464.125" y="305.75" width="10.5" height="10.5" rx="2" fill="#D9D9D9"/>
<rect x="464.125" y="318.875" width="49.8749" height="10.5" rx="2" fill="#D9D9D9"/>
<rect x="437.875" y="318.875" width="23.625" height="10.5" rx="2" fill="#D9D9D9"/>
<rect x="516.624" y="318.875" width="23.625" height="10.5" rx="2" fill="#D9D9D9"/>
<rect x="516.624" y="333.75" width="36.75" height="10.5" rx="2" fill="#272727"/>
<g filter="url(#filter0_dddddd_23_297)">
<path d="M533.055 333.75H538.24L552.499 344.249H517.499L533.055 333.75Z" fill="url(#paint0_linear_23_297)"/>
</g>
<rect x="477.25" y="279.5" width="10.5" height="10.5" rx="2" fill="#D9D9D9"/>
<rect x="477.25" y="292.625" width="10.5" height="10.5" rx="2" fill="#D9D9D9"/>
<rect x="477.25" y="305.75" width="10.5" height="10.5" rx="2" fill="#D9D9D9"/>
<rect x="490.375" y="279.5" width="10.5" height="10.5" rx="2" fill="#D9D9D9"/>
<rect x="490.375" y="292.625" width="10.5" height="10.5" rx="2" fill="#D9D9D9"/>
<rect x="490.375" y="305.75" width="10.5" height="10.5" rx="2" fill="#D9D9D9"/>
<rect x="503.5" y="279.5" width="10.5" height="10.5" rx="2" fill="#D9D9D9"/>
<rect x="503.5" y="292.625" width="10.5" height="10.5" rx="2" fill="#D9D9D9"/>
<rect x="516.624" y="279.5" width="10.5" height="10.5" rx="2" fill="#D9D9D9"/>
<rect x="516.624" y="292.625" width="10.5" height="10.5" rx="2" fill="#D9D9D9"/>
<rect x="503.5" y="305.75" width="10.5" height="10.5" rx="2" fill="#D9D9D9"/>
<rect x="542.874" y="279.5" width="10.5" height="10.5" rx="2" fill="#D9D9D9"/>
<rect x="542.874" y="305.75" width="10.5" height="10.5" rx="2" fill="#D9D9D9"/>
<rect x="542.874" y="292.625" width="10.5" height="10.5" rx="2" fill="#D9D9D9"/>
<rect x="529.749" y="305.75" width="10.5" height="10.5" rx="2" fill="#D9D9D9"/>
<rect x="542.874" y="318.875" width="10.5" height="10.5" rx="2" fill="#D9D9D9"/>
<rect x="437.875" y="292.625" width="10.5" height="10.5" rx="2" fill="#D9D9D9"/>
<rect x="437.875" y="305.75" width="10.5" height="10.5" rx="2" fill="#D9D9D9"/>
<rect x="529.749" y="279.5" width="10.5" height="10.5" rx="2" fill="#D9D9D9"/>
<rect x="529.749" y="292.625" width="10.5" height="10.5" rx="2" fill="#D9D9D9"/>
<rect x="516.624" y="305.75" width="10.5" height="10.5" rx="2" fill="#D9D9D9"/>
<defs>
<filter id="filter0_dddddd_23_297" x="515.534" y="331.784" width="38.9312" height="14.4312" filterUnits="userSpaceOnUse" color-interpolation-filters="sRGB">
<feFlood flood-opacity="0" result="BackgroundImageFix"/>
<feColorMatrix in="SourceAlpha" type="matrix" values="0 0 0 0 0 0 0 0 0 0 0 0 0 0 0 0 0 0 127 0" result="hardAlpha"/>
<feOffset/>
<feGaussianBlur stdDeviation="0.0234"/>
<feColorMatrix type="matrix" values="0 0 0 0 1 0 0 0 0 1 0 0 0 0 1 0 0 0 1 0"/>
<feBlend mode="normal" in2="BackgroundImageFix" result="effect1_dropShadow_23_297"/>
<feColorMatrix in="SourceAlpha" type="matrix" values="0 0 0 0 0 0 0 0 0 0 0 0 0 0 0 0 0 0 127 0" result="hardAlpha"/>
<feOffset/>
<feGaussianBlur stdDeviation="0.0468"/>
<feColorMatrix type="matrix" values="0 0 0 0 1 0 0 0 0 1 0 0 0 0 1 0 0 0 1 0"/>
<feBlend mode="normal" in2="effect1_dropShadow_23_297" result="effect2_dropShadow_23_297"/>
<feColorMatrix in="SourceAlpha" type="matrix" values="0 0 0 0 0 0 0 0 0 0 0 0 0 0 0 0 0 0 127 0" result="hardAlpha"/>
<feOffset/>
<feGaussianBlur stdDeviation="0.1638"/>
<feColorMatrix type="matrix" values="0 0 0 0 1 0 0 0 0 1 0 0 0 0 1 0 0 0 1 0"/>
<feBlend mode="normal" in2="effect2_dropShadow_23_297" result="effect3_dropShadow_23_297"/>
<feColorMatrix in="SourceAlpha" type="matrix" values="0 0 0 0 0 0 0 0 0 0 0 0 0 0 0 0 0 0 127 0" result="hardAlpha"/>
<feOffset/>
<feGaussianBlur stdDeviation="0.3276"/>
<feColorMatrix type="matrix" values="0 0 0 0 1 0 0 0 0 1 0 0 0 0 1 0 0 0 1 0"/>
<feBlend mode="normal" in2="effect3_dropShadow_23_297" result="effect4_dropShadow_23_297"/>
<feColorMatrix in="SourceAlpha" type="matrix" values="0 0 0 0 0 0 0 0 0 0 0 0 0 0 0 0 0 0 127 0" result="hardAlpha"/>
<feOffset/>
<feGaussianBlur stdDeviation="0.5616"/>
<feColorMatrix type="matrix" values="0 0 0 0 1 0 0 0 0 1 0 0 0 0 1 0 0 0 1 0"/>
<feBlend mode="normal" in2="effect4_dropShadow_23_297" result="effect5_dropShadow_23_297"/>
<feColorMatrix in="SourceAlpha" type="matrix" values="0 0 0 0 0 0 0 0 0 0 0 0 0 0 0 0 0 0 127 0" result="hardAlpha"/>
<feOffset/>
<feGaussianBlur stdDeviation="0.9828"/>
<feColorMatrix type="matrix" values="0 0 0 0 1 0 0 0 0 1 0 0 0 0 1 0 0 0 1 0"/>
<feBlend mode="normal" in2="effect5_dropShadow_23_297" result="effect6_dropShadow_23_297"/>
<feBlend mode="normal" in="SourceGraphic" in2="effect6_dropShadow_23_297" result="shape"/>
</filter>
<linearGradient id="paint0_linear_23_297" x1="533.055" y1="344.249" x2="533.055" y2="333.75" gradientUnits="userSpaceOnUse">
<stop stop-color="#18C229"/>
<stop offset="1" stop-color="#18C229" stop-opacity="0"/>
</linearGradient>
</defs>
</svg>
