<svg width="556" height="41" viewBox="0 0 556 41" fill="none" xmlns="http://www.w3.org/2000/svg">
<path d="M3 20L553 20.5228" stroke="#CCE6F4" stroke-width="3" stroke-linecap="round"/>
<circle cx="20" cy="20" r="20" fill="#175676"/>
<path d="M18.84 26.02V14.66L19.58 15.22L16.82 16.68L16.24 14.8L19.98 12.8H21.02V26.02H18.84ZM16.62 27V24.92H23.3V27H16.62Z" fill="white"/>
<circle cx="536" cy="21" r="20" fill="#CCE6F4"/>
<path d="M536.339 28V16.72L536.839 16.84L532.239 22.46L532.159 22.22H540.859V24.2H530.819L529.899 22.4L536.759 14H538.419V28H536.339Z" fill="white"/>
<circle cx="369" cy="21" r="20" fill="#CCE6F4"/>
<path d="M368.227 28.2C367.24 28.2 366.38 27.9733 365.647 27.52C364.927 27.0667 364.247 26.3067 363.607 25.24L365.287 24.18C365.62 24.6733 365.947 25.08 366.267 25.4C366.6 25.7067 366.94 25.9333 367.287 26.08C367.634 26.2267 368 26.3 368.387 26.3C368.854 26.3 369.287 26.1867 369.687 25.96C370.087 25.72 370.407 25.3933 370.647 24.98C370.887 24.5667 371.007 24.1 371.007 23.58C371.007 23.06 370.914 22.62 370.727 22.26C370.54 21.8867 370.267 21.6067 369.907 21.42C369.547 21.22 369.12 21.12 368.627 21.12C368.4 21.12 368.16 21.1467 367.907 21.2C367.667 21.24 367.407 21.3067 367.127 21.4C366.847 21.48 366.54 21.5867 366.207 21.72L365.607 20.14L369.927 15.38L370.347 16H364.387V14H372.407L372.807 14.8L368.227 19.88L367.727 19.36C367.834 19.3067 368.007 19.26 368.247 19.22C368.5 19.1667 368.707 19.14 368.867 19.14C369.454 19.14 370 19.2533 370.507 19.48C371.027 19.6933 371.474 20 371.847 20.4C372.234 20.7867 372.534 21.2467 372.747 21.78C372.974 22.3 373.087 22.86 373.087 23.46C373.087 24.3667 372.867 25.18 372.427 25.9C372 26.6067 371.42 27.1667 370.687 27.58C369.954 27.9933 369.134 28.2 368.227 28.2Z" fill="white"/>
<circle cx="186" cy="21" r="20" fill="#CCE6F4"/>
<path d="M181.881 28L181.221 26.36L185.501 21.54C185.728 21.3 185.961 21.0267 186.201 20.72C186.455 20.4 186.695 20.0733 186.921 19.74C187.148 19.4067 187.328 19.08 187.461 18.76C187.608 18.4267 187.681 18.1133 187.681 17.82C187.681 17.3933 187.595 17.0333 187.421 16.74C187.261 16.4333 187.021 16.2 186.701 16.04C186.395 15.88 186.021 15.8 185.581 15.8C185.195 15.8 184.815 15.9133 184.441 16.14C184.068 16.3667 183.728 16.6867 183.421 17.1C183.115 17.5133 182.875 17.9933 182.701 18.54L181.041 17.5C181.268 16.7267 181.608 16.0667 182.061 15.52C182.528 14.96 183.081 14.5333 183.721 14.24C184.375 13.9467 185.081 13.8 185.841 13.8C186.628 13.8 187.328 13.9667 187.941 14.3C188.555 14.62 189.035 15.0733 189.381 15.66C189.728 16.2333 189.901 16.9 189.901 17.66C189.901 17.9667 189.868 18.28 189.801 18.6C189.735 18.92 189.628 19.2533 189.481 19.6C189.335 19.9333 189.148 20.2867 188.921 20.66C188.695 21.02 188.421 21.4 188.101 21.8C187.795 22.2 187.441 22.62 187.041 23.06L183.861 26.52L183.461 25.92H190.341V28H181.881Z" fill="white"/>
</svg>
